{"title":"Star Trek Into Darkness (2013)BRRip 1080p Eng. TrugR","uid":8948907,"size":3892498562,"categoryP":"video","categoryS":"hd___movies","magnet":"?xt=urn:btih:4ed82db5adb373c12a221b54facbbf109aa8ab28&amp;dn=Star+Trek+Into+Darkness+%282013%29BRRip+1080p+Eng.+TrugR&amp;tr=udp%3A%2F%2Ftracker.openbittorrent.com%3A80&amp;tr=udp%3A%2F%2Fopen.demonii.com%3A1337&amp;tr=udp%3A%2F%2Ftracker.coppersurfer.tk%3A6969&amp;tr=udp%3A%2F%2Fexodus.desync.com%3A6969","seeders":2,"leechers":0,"uploader":"Trugger","files":5,"time":1379840074,"description":"For those wanting a High Quality picture and 2 channel sound.\n &lt;a href=&quot;\nhttp://bayimg.com/DApiEAaeN&quot; rel=&quot;nofollow&quot; target=&quot;_NEW&quot;&gt;\nhttp://bayimg.com/DApiEAaeN&lt;/a&gt; &lt;a href=&quot;\nhttp://bayimg.com/DApiGAAen&quot; rel=&quot;nofollow&quot; target=&quot;_NEW&quot;&gt;\nhttp://bayimg.com/DApiGAAen&lt;/a&gt; &lt;a href=&quot;\nhttp://bayimg.com/DAPijaAeN&quot; rel=&quot;nofollow&quot; target=&quot;_NEW&quot;&gt;\nhttp://bayimg.com/DAPijaAeN&lt;/a&gt;\n\nhanks to all who SEED.\nFor best download speed, increase upload speed.\nBe one with the swarm.\n\nGeneral\nComplete name : C:UsersadminVideosbrakedStar Trek Into Darkness (2013)BRRip 1080p Eng. TrugRStar Trek Into Darkness.mp4\nFormat : MPEG-4\nFormat profile : Base Media / Version 2\nCodec ID : mp42\nFile size : 3.62 GiB\nDuration : 2h 12mn\nOverall bit rate mode : Variable\nOverall bit rate : 3 908 Kbps\nEncoded date : UTC 2013-09-21 13:31:14\nTagged date : UTC 2013-09-21 19:41:10\nWriting application : HandBrake 0.9.9 2013051800\n\nVideo ID :1\nFormat : AVC\nFormat/Info : Advanced Video Codec\nFormat profile : &lt;a class=&quot;__cf_email__&quot; href=&quot;/cdn-cgi/l/email-protection&quot; data-cfemail=&quot;074a666e69474b332937&quot;&gt;[email&amp;#160;protected]&lt;/a&gt;&lt;script cf-hash='f9e31' type=&quot;text/javascript&quot;&gt;\n/* &lt;![CDATA[ */!function(){try{var t=&quot;currentScript&quot;in document?document.currentScript:function(){for(var t=document.getElementsByTagName(&quot;script&quot;),e=t.length;e--;)if(t[e].getAttribute(&quot;cf-hash&quot;))return t[e]}();if(t&amp;&amp;t.previousSibling){var e,r,n,i,c=t.previousSibling,a=c.getAttribute(&quot;data-cfemail&quot;);if(a){for(e=&quot;&quot;,r=parseInt(a.substr(0,2),16),n=2;a.length-n;n+=2)i=parseInt(a.substr(n,2),16)^r,e+=String.fromCharCode(i);e=document.createTextNode(e),c.parentNode.replaceChild(e,c)}}}catch(u){}}();/* ]]&gt; */&lt;/script&gt;\nFormat settings, CABAC : Yes\nFormat settings, ReFrames : 4 frames\nCodec ID : avc1\nCodec ID/Info : Advanced Video Coding\nDuration : 2h 12mn\nBit rate mode : Variable\nBit rate : 3 808 Kbps\nWidth : 1 920 pixels\nHeight : 800 pixels\nDisplay aspect ratio : 2.40:1\nFrame rate mode : Variable\nFrame rate : 23.976 fps\nMinimum frame rate : 23.974 fps\nMaximum frame rate : 23.981 fps\nColor space : YUV\nChroma subsampling : 4:2:0\nBit depth : 8 bits\nScan type : Progressive\nBits/(Pixel*Frame) : 0.103\nStream size : 3.52 GiB (97%)\nWriting library : x264 core 130 r2273 b3065e6\n\nEncoded date : UTC 2013-09-21 13:31:14\nTagged date : UTC 2013-09-21 19:41:10\nAudio\nID :2\nFormat : AAC\nFormat/Info : Advanced Audio Codec\nFormat profile : LC\nCodec ID : 40\nDuration : 2h 12mn\nBit rate mode : Variable\nBit rate 96.0 Kbps\nMaximum bit rate : 165 Kbps\nChannel(s) : 2 channels\nChannel positions : Front: L R\nSampling rate : 48.0 KHz\nCompression mode : Lossy\nDelay relative to video : -83ms\nStream size : 90.7 MiB (2%)\nLanguage : English\nEncoded date : UTC 2013-09-21 13:31:14\nTagged date : UTC 2013-09-21 19","torrent":{"xt":"urn:btih:4ed82db5adb373c12a221b54facbbf109aa8ab28","amp;dn":"Star+Trek+Into+Darkness+%282013%29BRRip+1080p+Eng.+TrugR","amp;tr":["udp%3A%2F%2Ftracker.openbittorrent.com%3A80","udp%3A%2F%2Fopen.demonii.com%3A1337","udp%3A%2F%2Ftracker.coppersurfer.tk%3A6969","udp%3A%2F%2Fexodus.desync.com%3A6969"],"infoHash":"4ed82db5adb373c12a221b54facbbf109aa8ab28","infoHashBuffer":{"type":"Buffer","data":[78,216,45,181,173,179,115,193,42,34,27,84,250,203,191,16,154,168,171,40]},"announce":[],"urlList":[]}}